<svg width="200" height="200" fill="none" xmlns="http://www.w3.org/2000/svg"><path d="M97.556 182.96a75.747 75.747 0 0 1-3.858-8.488c-1.115-2.829-1.715-5.83-1.458-8.659.429-3.001 1.543-5.83 3.172-8.317 1.63-2.658 3.773-5.058 5.745-7.716a39.067 39.067 0 0 0 7.46-17.919c0-.086-.086-.171-.171-.257-.086 0-.172 0-.258.171-1.457 6.259-4.373 12.003-8.574 16.805-1.972 2.486-4.287 4.715-6.26 7.459a23.113 23.113 0 0 0-4.2 9.345c-.601 3.515-.087 7.03.856 10.288a38.133 38.133 0 0 0 4.116 9.174c1.715 2.829 3.602 5.487 5.745 7.973 2.058 2.487 4.287 4.887 6.774 7.116.086.086.171.086.257 0 .086-.085.086-.171.086-.257-3.173-5.658-6.602-11.06-9.432-16.718Z" fill="url(#a)"/><path d="M80.836 19.29a120.007 120.007 0 0 1 5.917 7.202c1.8 2.486 3.172 5.144 3.687 8.059.343 3 0 6.001-.944 8.916-.943 3.001-2.315 5.83-3.515 8.917-2.4 6.087-3.344 12.689-2.572 19.29 0 .086.085.172.171.172a.184.184 0 0 0 .172-.172 37.844 37.844 0 0 1 3.944-18.433c1.286-2.915 2.915-5.744 4.116-8.83 1.286-3.173 1.886-6.688 1.629-10.117-.343-3.601-1.8-6.86-3.516-9.774-1.8-2.83-3.858-5.487-6.345-7.802a59.24 59.24 0 0 0-7.631-6.259c-2.658-1.886-5.488-3.6-8.317-5.144h-.258c-.085.086-.085.171 0 .257 4.545 4.716 9.26 9.002 13.462 13.718Z" fill="url(#b)"/><path d="M119.164 180.732a120.37 120.37 0 0 1-5.917-7.202c-1.8-2.486-3.172-5.144-3.687-8.059-.343-3.001 0-6.002.944-8.917.943-2.915 2.315-5.83 3.515-8.916 2.401-6.087 3.344-12.689 2.572-19.291 0-.085-.085-.171-.171-.171-.086 0-.172.086-.172.171a37.828 37.828 0 0 1-3.944 18.433c-1.286 2.915-2.915 5.659-4.116 8.831-1.286 3.173-1.8 6.688-1.629 10.117.343 3.601 1.801 6.859 3.516 9.774 1.801 2.829 3.858 5.487 6.345 7.802 2.401 2.315 4.887 4.373 7.631 6.259 2.658 1.886 5.488 3.601 8.317 5.144.086.086.258 0 .258-.086v-.257c-4.631-4.544-9.261-8.917-13.462-13.632Z" fill="url(#c)"/><path d="M60.6 27.007a67.062 67.062 0 0 1 7.546 5.402c2.4 1.886 4.373 4.2 5.573 6.773 1.115 2.829 1.544 5.83 1.372 8.83-.085 3.087-.771 6.26-1.114 9.517-.772 6.516.085 13.118 2.486 19.29 0 .087.172.172.257.087.086 0 .172-.172.172-.258a38.017 38.017 0 0 1-.943-18.862c.514-3.172 1.372-6.258 1.715-9.602.428-3.43.085-6.859-1.03-10.203-1.286-3.343-3.515-6.173-5.916-8.487-2.486-2.315-5.145-4.287-8.146-5.916-2.915-1.543-5.916-2.915-8.917-4.03-3.087-1.114-6.174-2.057-9.346-2.743-.086 0-.172 0-.257.085-.086.086 0 .172.085.258 5.488 3.43 11.233 6.43 16.463 9.86Z" fill="url(#d)"/><path d="M139.4 173.015a67.068 67.068 0 0 1-7.546-5.401c-2.401-1.886-4.373-4.201-5.573-6.773-1.115-2.829-1.544-5.83-1.372-8.831.086-3.086.772-6.259 1.115-9.517.771-6.516-.086-13.117-2.487-19.29 0-.086-.172-.172-.257-.086-.086 0-.172.172-.086.257a38.022 38.022 0 0 1 .943 18.862c-.514 3.172-1.372 6.259-1.715 9.603-.428 3.429-.085 6.944 1.029 10.202 1.286 3.344 3.516 6.173 5.917 8.488 2.486 2.315 5.144 4.287 8.145 5.916a85.358 85.358 0 0 0 9.004 4.115c3.086 1.115 6.173 2.058 9.346 2.744.085 0 .171 0 .257-.086s0-.172-.086-.257c-5.745-3.515-11.404-6.43-16.634-9.946Z" fill="url(#e)"/><path d="M24.501 34.466c6.26 1.8 12.519 3.172 18.435 5.23 3.002.943 5.831 1.972 8.66 3.258 2.83 1.2 5.317 2.915 7.203 5.144 1.8 2.4 3.001 5.23 3.602 8.23.685 3.001.943 6.26 1.371 9.517a39.887 39.887 0 0 0 7.374 17.919c.086.086.172.086.258.086.085-.086.085-.172.085-.258-3.43-5.4-5.401-11.574-5.83-18.004-.343-3.172-.343-6.43-.858-9.688-.514-3.43-1.715-6.688-3.6-9.603-2.145-2.915-4.974-5.058-7.89-6.687-2.915-1.629-6.087-2.83-9.346-3.601-3.172-.772-6.43-1.286-9.689-1.629a62.077 62.077 0 0 0-9.775-.257.185.185 0 0 0-.171.171c0 .086.086.172.171.172Z" fill="url(#f)"/><path d="M175.413 165.556c-6.26-1.8-12.519-3.172-18.435-5.23-3.002-.943-5.831-2.057-8.661-3.258-2.744-1.2-5.316-2.915-7.202-5.144-1.801-2.4-3.001-5.23-3.602-8.23-.685-3.001-.943-6.259-1.371-9.517a39.903 39.903 0 0 0-7.374-17.919c-.086-.086-.172-.086-.258-.086-.085.086-.085.172-.085.258 3.429 5.401 5.401 11.574 5.83 18.004.343 3.172.343 6.43.858 9.688.514 3.43 1.715 6.688 3.601 9.603 2.144 2.915 4.973 5.058 7.888 6.687 2.916 1.629 6.088 2.829 9.347 3.601 3.172.772 6.43 1.286 9.689 1.629 3.258.343 6.516.429 9.775.257.085 0 .171-.086.171-.171 0 0-.086-.172-.171-.172Z" fill="url(#g)"/><path d="M10.183 56.242c6.516.172 12.947-.085 19.207.258 3.086.085 6.173.428 9.26.943 3.001.428 5.916 1.457 8.232 3.086a22.18 22.18 0 0 1 5.659 6.945c1.457 2.743 2.486 5.83 3.858 8.83 2.572 6.002 6.688 11.318 11.833 15.433.086.086.171.086.257 0s.086-.171 0-.257c-4.716-4.373-8.231-9.774-10.29-15.861-1.114-3.001-1.971-6.088-3.343-9.174-1.372-3.172-3.344-6.001-5.917-8.316-2.83-2.315-6.087-3.601-9.346-4.373a38.847 38.847 0 0 0-9.946-1.029c-3.258.086-6.603.429-9.775.943a59.287 59.287 0 0 0-9.518 2.315.184.184 0 0 0-.171.172c-.172 0-.086.085 0 .085Z" fill="url(#h)"/><path d="M189.818 143.78c-6.517-.172-12.948.171-19.207-.258-3.087-.085-6.174-.428-9.261-.943-3.001-.428-5.916-1.457-8.231-3.086a22.18 22.18 0 0 1-5.659-6.945c-1.458-2.743-2.487-5.83-3.859-8.831-2.572-6.001-6.688-11.317-11.833-15.432-.085-.086-.171-.086-.257 0s-.086.171 0 .257c4.716 4.373 8.232 9.774 10.289 15.861 1.115 3.001 1.973 6.088 3.345 9.174 1.371 3.172 3.429 6.002 5.916 8.316 2.829 2.315 6.088 3.601 9.346 4.373a38.811 38.811 0 0 0 9.946 1.029c3.259-.086 6.603-.343 9.775-.943a59.32 59.32 0 0 0 9.518-2.315.185.185 0 0 0 .172-.172c.171 0 .085-.085 0-.085Z" fill="url(#i)"/><path d="M1.865 81.021c6.345-1.543 12.433-3.515 18.607-4.716a81.947 81.947 0 0 1 9.174-1.543c3.001-.343 6.088-.171 8.746.858 2.744 1.2 5.23 3 7.203 5.315 2.143 2.315 3.858 4.973 5.916 7.545 4.116 5.144 9.346 9.26 15.434 11.832.086 0 .172 0 .257-.086.086-.086 0-.172-.085-.257-5.66-3.001-10.461-7.374-14.063-12.69-1.8-2.571-3.515-5.4-5.573-7.973-2.144-2.743-4.802-4.887-7.888-6.516-3.259-1.457-6.774-1.886-10.204-1.8-3.344.086-6.688.6-9.86 1.543-3.173.943-6.26 2.058-9.261 3.43a63.981 63.981 0 0 0-8.575 4.715c-.085.086-.085.172-.085.257.085 0 .171.086.257.086Z" fill="url(#j)"/><path d="M198.049 119.087c-6.345 1.544-12.433 3.43-18.606 4.716a81.918 81.918 0 0 1-9.175 1.543c-3.001.343-6.088.172-8.746-.857-2.744-1.201-5.23-3.001-7.202-5.316-2.144-2.315-3.859-4.973-5.917-7.545-4.115-5.144-9.346-9.259-15.434-11.831-.085 0-.171 0-.257.086-.086.085 0 .171.086.257a38.238 38.238 0 0 1 13.976 12.689c1.801 2.572 3.516 5.401 5.574 7.973 2.143 2.744 4.801 4.887 7.888 6.516 3.258 1.458 6.774 1.886 10.204 1.801a38.182 38.182 0 0 0 9.86-1.544c3.173-.943 6.26-2.057 9.261-3.429a63.962 63.962 0 0 0 8.574-4.716c.086-.085.086-.171.086-.257.086-.086-.086-.171-.172-.086Z" fill="url(#k)"/><path d="M25.53 93.796c2.83-1.115 5.831-1.715 8.66-1.458 3.002.43 5.831 1.544 8.318 3.173 2.658 1.629 5.059 3.772 7.717 5.744a39.081 39.081 0 0 0 17.92 7.459c.086 0 .172-.086.258-.172 0-.085 0-.171-.172-.257-6.259-1.457-12.004-4.372-16.806-8.573-2.486-1.972-4.716-4.287-7.46-6.259a23.126 23.126 0 0 0-9.346-4.201c-3.515-.6-7.03-.086-10.289.857a38.135 38.135 0 0 0-9.175 4.116c-2.83 1.714-5.487 3.6-7.974 5.744-2.486 2.058-4.887 4.372-7.117 6.773-.085.086-.085.171 0 .257.086.086.172.086.258.086 5.744-3.172 11.146-6.602 16.72-9.431a75.714 75.714 0 0 1 8.488-3.858Z" fill="url(#l)"/><path d="M174.47 106.228c-2.83 1.114-5.831 1.714-8.661 1.457-3.001-.429-5.83-1.543-8.317-3.172-2.658-1.629-5.059-3.772-7.717-5.744a39.081 39.081 0 0 0-17.921-7.46c-.085 0-.171.086-.257.172 0 .086.086.172.172.257 6.259 1.458 12.004 4.373 16.806 8.574 2.486 1.972 4.716 4.287 7.459 6.259a23.14 23.14 0 0 0 9.347 4.201c3.515.6 7.031.085 10.289-.858a38.157 38.157 0 0 0 9.175-4.115c2.829-1.715 5.487-3.601 7.974-5.744 2.572-2.058 4.887-4.287 7.117-6.774.086-.085.086-.171 0-.257-.086-.085-.172-.085-.257-.085-5.745 3.172-11.147 6.601-16.721 9.43a75.732 75.732 0 0 1-8.488 3.859Z" fill="url(#m)"/><path d="M19.272 119.173c2.315-2.058 4.63-4.03 7.202-5.916 2.487-1.8 5.145-3.172 8.06-3.687 3.001-.342 6.002 0 8.918.944 3 .943 5.83 2.314 8.917 3.515 6.088 2.4 12.69 3.343 19.293 2.572.085 0 .171-.086.171-.172 0-.085-.085-.171-.171-.171a37.86 37.86 0 0 1-18.435-3.944c-2.916-1.286-5.745-2.915-8.832-4.115-3.173-1.286-6.688-1.887-10.118-1.629-3.601.343-6.86 1.8-9.775 3.515-2.83 1.8-5.487 3.858-7.803 6.344-2.315 2.401-4.373 4.887-6.259 7.631a64.24 64.24 0 0 0-5.059 8.402v.257c.086.086.172.086.257 0 4.545-4.63 8.918-9.345 13.634-13.546Z" fill="url(#n)"/><path d="M180.728 80.85c-2.315 2.143-4.716 4.03-7.202 5.916-2.487 1.8-5.145 3.172-8.061 3.686-3.001.343-6.002 0-8.917-.943s-5.831-2.315-8.917-3.515c-6.088-2.4-12.691-3.344-19.293-2.572-.086 0-.171.086-.171.171 0 .086.085.172.171.172a37.853 37.853 0 0 1 18.435 3.944c2.915 1.286 5.745 2.915 8.832 4.115 3.172 1.286 6.688 1.886 10.118 1.629 3.601-.343 6.859-1.8 9.775-3.515 2.829-1.8 5.487-3.858 7.802-6.345a59.231 59.231 0 0 0 6.26-7.63c1.886-2.658 3.601-5.487 5.144-8.402v-.257c-.085-.086-.171-.086-.257 0-4.716 4.63-9.003 9.345-13.719 13.546Z" fill="url(#o)"/><path d="M32.39 131.861c1.887-2.401 4.202-4.373 6.774-5.573 2.83-1.114 5.83-1.543 8.832-1.372 3.087.086 6.26.772 9.517 1.115 6.517.772 13.12-.086 19.293-2.486.086 0 .172-.172.086-.258 0-.085-.172-.171-.257-.085a38.029 38.029 0 0 1-18.864.943c-3.173-.515-6.26-1.372-9.604-1.715-3.43-.429-6.86-.086-10.203 1.029-3.344 1.286-6.174 3.515-8.489 5.916-2.315 2.4-4.287 5.144-5.917 8.145a85.24 85.24 0 0 0-4.115 9.002c-1.115 3.086-2.058 6.173-2.744 9.431 0 .086 0 .171.086.171.085.086.171 0 .257-.085 3.344-5.573 6.345-11.232 9.775-16.547 1.8-2.658 3.601-5.23 5.573-7.631Z" fill="url(#p)"/><path d="M167.61 68.16c-1.887 2.4-4.202 4.373-6.774 5.573-2.83 1.114-5.831 1.543-8.832 1.372-3.087-.086-6.259-.772-9.518-1.115-6.516-.771-13.119.086-19.292 2.486-.086 0-.172.172-.086.258 0 .085.172.171.257.085a38.028 38.028 0 0 1 18.864-.943c3.173.515 6.259 1.372 9.604 1.715 3.429.429 6.859.086 10.203-1.029 3.344-1.286 6.174-3.515 8.489-5.916 2.315-2.4 4.287-5.144 5.916-8.145 1.629-2.914 2.916-5.915 4.116-9.002 1.115-3.086 2.058-6.173 2.744-9.43 0-.086 0-.172-.086-.172-.086-.086-.171 0-.257.086-3.344 5.572-6.345 11.231-9.775 16.547-1.801 2.657-3.601 5.23-5.573 7.63Z" fill="url(#q)"/><path d="M48.081 141.121c2.401-1.801 5.23-3.001 8.232-3.601 3-.686 6.26-.943 9.517-1.372a39.896 39.896 0 0 0 17.921-7.373c.086-.086.086-.172.086-.258-.086-.085-.172-.085-.257-.085-5.402 3.343-11.576 5.401-18.007 5.83-3.172.343-6.43.343-9.689.857-3.43.514-6.688 1.715-9.603 3.601-2.916 2.143-5.06 4.973-6.688 7.888-1.544 2.915-2.83 6.087-3.602 9.345-.771 3.172-1.286 6.43-1.629 9.688a62.053 62.053 0 0 0-.257 9.774c0 .086.086.171.172.171.085 0 .171 0 .257-.171 1.8-6.259 3.172-12.518 5.23-18.519.943-3.001 2.058-5.83 3.258-8.659 1.115-2.744 2.83-5.316 5.06-7.116Z" fill="url(#r)"/><path d="M151.918 58.986c-2.4 1.8-5.23 3-8.231 3.6-3.001.687-6.259.858-9.518 1.373a39.894 39.894 0 0 0-17.92 7.373c-.086.086-.086.171-.086.257.086.086.171.086.257.086 5.402-3.344 11.576-5.402 18.006-5.83 3.173-.343 6.431-.343 9.69-.858 3.429-.514 6.688-1.714 9.603-3.6 2.915-2.144 5.059-4.973 6.688-7.888 1.544-2.915 2.83-6.088 3.601-9.346.772-3.172 1.287-6.43 1.63-9.688.343-3.258.428-6.516.257-9.774 0-.085-.086-.171-.172-.171-.085 0-.171.086-.171.172-1.801 6.258-3.173 12.517-5.231 18.433-.943 3-2.057 5.83-3.258 8.659-1.2 2.744-2.915 5.316-5.145 7.202Z" fill="url(#s)"/><path d="M67.374 147.551c2.744-1.458 5.83-2.487 8.832-3.858 6.002-2.572 11.318-6.688 15.434-11.832.085-.086.085-.171 0-.257-.086-.086-.172-.086-.258 0a40.025 40.025 0 0 1-15.862 10.288c-3.001 1.115-6.088 1.972-9.175 3.344-3.172 1.372-6.002 3.429-8.317 5.916-2.315 2.829-3.602 6.087-4.373 9.345a38.83 38.83 0 0 0-1.03 9.945c.087 3.258.344 6.602.944 9.774a59.281 59.281 0 0 0 2.315 9.517c0 .085.086.171.172.171.085 0 .171-.086.171-.171.172-6.516-.171-12.946.257-19.205.086-3.087.43-6.173.944-9.26.428-3 1.457-5.915 3.086-8.23 1.801-2.229 4.202-4.116 6.86-5.487Z" fill="url(#t)"/><path d="M132.54 52.557c-2.744 1.457-5.831 2.486-8.832 3.858-6.002 2.658-11.318 6.687-15.434 11.832-.085.085-.085.171 0 .257.086.085.172.085.257 0 4.373-4.63 9.775-8.23 15.863-10.289 3.001-1.114 6.088-1.971 9.175-3.343a24.052 24.052 0 0 0 8.317-6.002c2.315-2.743 3.601-6.087 4.373-9.345a38.808 38.808 0 0 0 1.029-9.945c-.086-3.258-.429-6.602-.943-9.774a59.32 59.32 0 0 0-2.315-9.517c0-.086-.086-.171-.172-.171-.085 0-.171.085-.171.171-.172 6.516.086 12.946-.257 19.205-.086 3.087-.429 6.173-.944 9.26-.428 3-1.457 5.915-3.086 8.23-1.801 2.23-4.116 4.201-6.86 5.573Z" fill="url(#u)"/><path d="M74.663 170.357c-.343-3.001-.172-6.087.857-8.745 1.2-2.744 3.001-5.23 5.316-7.202 2.315-2.143 4.973-3.944 7.546-5.916 5.144-4.115 9.26-9.345 11.833-15.346 0-.086 0-.172-.086-.258-.086-.085-.172 0-.257.086a38.238 38.238 0 0 1-12.69 13.975c-2.573 1.886-5.403 3.515-7.975 5.573-2.744 2.143-4.887 4.801-6.516 7.888-1.458 3.258-1.887 6.773-1.801 10.202.086 3.344.6 6.688 1.543 9.86.943 3.172 2.058 6.259 3.43 9.259a63.984 63.984 0 0 0 4.716 8.574c.086.086.172.086.257.086.086 0 .172-.172.172-.257-1.544-6.345-3.43-12.432-4.716-18.605-.772-3.001-1.286-6.087-1.63-9.174Z" fill="url(#v)"/><path d="M125.252 29.664c.343 3 .171 6.087-.857 8.745a21.042 21.042 0 0 1-5.317 7.287c-2.315 2.144-4.973 3.858-7.545 5.916-5.145 4.115-9.261 9.345-11.833 15.347-.086.086 0 .171.086.257s.171 0 .257-.086a38.241 38.241 0 0 1 12.69-13.975c2.573-1.8 5.402-3.515 7.974-5.572 2.744-2.144 4.888-4.802 6.517-7.888 1.458-3.258 1.886-6.773 1.801-10.203a38.14 38.14 0 0 0-1.544-9.86c-.943-3.172-2.058-6.258-3.429-9.259-1.372-3-2.916-5.83-4.716-8.66h-.172c-.086 0-.171.172-.171.258 1.543 6.345 3.429 12.432 4.716 18.605.771 3 1.2 6.087 1.543 9.088Z" fill="url(#w)"/><path d="M102.358 17.06a75.697 75.697 0 0 1 3.859 8.488c1.115 2.83 1.715 5.83 1.458 8.66a19.46 19.46 0 0 1-3.259 8.316c-1.629 2.658-3.772 5.059-5.745 7.716-3.944 5.316-6.516 11.403-7.46 17.92 0 .085.086.17.172.256.086 0 .172 0 .257-.171 1.458-6.259 4.373-12.003 8.575-16.804 1.972-2.487 4.287-4.716 6.259-7.46a23.122 23.122 0 0 0 4.202-9.345c.6-3.515.085-7.03-.858-10.288a38.144 38.144 0 0 0-4.115-9.174c-1.715-2.829-3.602-5.487-5.745-7.973C97.9 4.715 95.585 2.314 93.184.085c-.086-.086-.172-.086-.257 0-.086.086-.086.171-.086.257 3.258 5.744 6.688 11.146 9.517 16.719Z" fill="url(#x)"/><path d="M70.46 22.462c2.402 1.972 4.631 4.116 6.775 6.345 2.143 2.229 3.858 4.715 4.716 7.459.686 2.915.772 6.001.257 8.916-.514 3.087-1.543 6.087-2.315 9.346-1.63 6.344-1.63 13.031-.086 19.462 0 .085.086.171.257.171.086 0 .172-.086.172-.257-1.03-6.345-.515-12.775 1.543-18.776.944-3.001 2.144-6.002 2.916-9.346.857-3.343.943-6.858.343-10.202-.858-3.515-2.659-6.516-4.716-9.174-2.144-2.572-4.545-4.887-7.289-6.859-2.658-1.972-5.487-3.686-8.317-5.23-2.915-1.543-5.916-2.829-8.917-3.944-.086 0-.172 0-.258.086-.085.086-.085.172 0 .258 4.888 4.03 10.118 7.63 14.92 11.745Z" fill="url(#y)"/><path d="M129.539 177.559c-2.401-1.972-4.63-4.115-6.774-6.344s-3.859-4.716-4.63-7.459c-.686-2.915-.772-6.002-.172-8.917.515-3.086 1.544-6.087 2.315-9.259 1.629-6.345 1.629-13.032 0-19.462 0-.086-.085-.172-.257-.172-.086 0-.171.086-.171.172 1.029 6.344.514 12.774-1.544 18.862-.943 3-2.143 6.001-2.915 9.259-.858 3.344-.943 6.859-.343 10.203.857 3.515 2.658 6.516 4.716 9.173 2.143 2.572 4.544 4.887 7.288 6.859 2.658 1.972 5.488 3.687 8.403 5.23 2.915 1.543 5.916 2.829 8.918 3.944.085 0 .171 0 .257-.086s.086-.171 0-.257c-5.145-3.944-10.375-7.631-15.091-11.746Z" fill="url(#z)"/><path d="M51.425 32.75c2.83 1.286 5.574 2.744 8.146 4.373 2.573 1.543 4.888 3.6 6.431 6.002 1.458 2.657 2.315 5.572 2.487 8.573.257 3.087.085 6.345.171 9.602a39.858 39.858 0 0 0 4.973 18.777c.086.085.172.171.258.085.085-.085.171-.171.085-.257-2.658-5.83-3.772-12.174-3.43-18.605.086-3.172.515-6.43.43-9.773 0-3.43-.858-6.86-2.316-9.946-1.715-3.172-4.287-5.658-6.945-7.63-2.744-1.972-5.66-3.515-8.832-4.716a59.738 59.738 0 0 0-9.432-2.829 61.626 61.626 0 0 0-9.689-1.543c-.086 0-.171 0-.171.085 0 .086 0 .172.085.258 6.002 2.657 12.09 4.8 17.75 7.545Z" fill="url(#A)"/><path d="M148.574 167.27c-2.83-1.286-5.573-2.743-8.146-4.372-2.572-1.543-4.887-3.601-6.431-6.002-1.457-2.658-2.315-5.573-2.486-8.573-.257-3.087-.086-6.345-.172-9.603a39.856 39.856 0 0 0-4.973-18.776c-.086-.086-.171-.086-.257-.086-.086.086-.172.172-.086.258 2.658 5.83 3.773 12.174 3.43 18.604-.086 3.173-.515 6.43-.429 9.774 0 3.43.858 6.859 2.315 9.946 1.715 3.172 4.287 5.658 6.946 7.63 2.743 1.972 5.659 3.601 8.831 4.801a70.507 70.507 0 0 0 9.432 2.915 61.688 61.688 0 0 0 9.689 1.544c.086 0 .172 0 .172-.086s0-.172-.086-.257c-6.088-2.744-12.09-4.973-17.749-7.717Z" fill="url(#B)"/><path d="M16.613 44.926c6.431 1.029 12.776 1.543 19.035 2.744 3.087.514 6.088 1.2 9.004 2.143 2.915.857 5.659 2.143 7.803 4.115 2.057 2.144 3.687 4.802 4.63 7.63 1.029 2.916 1.715 6.088 2.658 9.175 1.8 6.344 5.145 12.088 9.689 16.804.086.086.171.086.257 0s.086-.172 0-.257c-4.03-4.973-6.86-10.803-8.06-17.062-.686-3.086-1.114-6.344-2.143-9.517-.944-3.343-2.573-6.344-4.802-9.002-2.487-2.572-5.573-4.372-8.746-5.573a38.656 38.656 0 0 0-9.775-2.314c-3.258-.343-6.517-.515-9.86-.343a63.043 63.043 0 0 0-9.776 1.029.184.184 0 0 0-.171.17c.086.172.171.258.257.258Z" fill="url(#C)"/><path d="M183.301 155.182c-6.431-1.029-12.776-1.543-19.035-2.743-3.087-.515-6.088-1.201-9.003-2.144-2.916-.857-5.66-2.143-7.803-4.115-2.058-2.143-3.687-4.801-4.63-7.63-1.029-2.915-1.715-6.088-2.658-9.174-1.801-6.345-5.145-12.089-9.69-16.804-.085-.086-.171-.086-.257 0-.086.085-.086.171 0 .257 4.03 4.973 6.86 10.803 8.06 17.061.686 3.087 1.201 6.259 2.144 9.517.943 3.344 2.572 6.344 4.802 9.002 2.486 2.572 5.573 4.373 8.66 5.573a38.668 38.668 0 0 0 9.775 2.315c3.258.343 6.602.514 9.86.343a60.917 60.917 0 0 0 9.689-1.029c.086 0 .172-.086.172-.171.086-.172.086-.258-.086-.258Z" fill="url(#D)"/><path d="M5.21 68.332c6.516-.686 12.775-1.8 19.034-2.23 3.087-.257 6.174-.342 9.26-.257 3.088.086 6.089.6 8.575 1.972 2.573 1.544 4.802 3.687 6.517 6.173 1.8 2.572 3.173 5.402 4.973 8.23A38.936 38.936 0 0 0 67.29 95.94c.085.085.17 0 .257-.086.085-.086 0-.171-.086-.257-5.23-3.687-9.432-8.66-12.262-14.404-1.543-2.83-2.743-5.744-4.544-8.66-1.8-3-4.116-5.486-7.031-7.458-3.087-1.886-6.517-2.744-9.86-3.172a39.327 39.327 0 0 0-10.033.257c-3.258.514-6.43 1.2-9.603 2.229-3.173.943-6.174 2.143-9.175 3.515-.086 0-.086.086-.086.171.086.172.172.258.343.258Z" fill="url(#E)"/><path d="M194.705 131.69c-6.516.686-12.776 1.801-19.035 2.229a83.5 83.5 0 0 1-9.26.258c-3.087-.086-6.088-.601-8.575-1.972-2.572-1.544-4.802-3.687-6.516-6.173-1.801-2.572-3.173-5.402-4.974-8.231a38.945 38.945 0 0 0-13.719-13.718c-.086-.085-.171 0-.257.086s0 .172.086.257c5.23 3.687 9.432 8.66 12.261 14.404 1.544 2.829 2.744 5.744 4.545 8.659 1.8 3.001 4.115 5.487 7.031 7.459 3.087 1.886 6.516 2.744 9.86 3.172 3.344.343 6.688.258 10.033-.257 3.258-.514 6.43-1.2 9.603-2.229 3.173-.943 6.174-2.143 9.175-3.515.085 0 .085-.086.085-.172-.085-.171-.171-.257-.343-.257.086 0 .086 0 0 0Z" fill="url(#F)"/><path d="M.236 93.966c6.088-2.4 11.918-5.058 17.835-7.116 2.915-1.028 5.916-1.972 8.917-2.657 3.001-.686 6.002-.944 8.832-.343a21.46 21.46 0 0 1 7.889 4.286c2.4 1.972 4.544 4.459 6.86 6.688 4.715 4.544 10.46 7.887 16.805 9.774.086 0 .172 0 .257-.086 0-.086 0-.172-.085-.257-6.003-2.229-11.319-5.916-15.606-10.717-2.144-2.315-4.116-4.887-6.602-7.202-2.487-2.4-5.402-4.287-8.66-5.401-3.43-1.03-7.032-.944-10.376-.515-3.344.515-6.516 1.543-9.603 2.915a56.015 56.015 0 0 0-8.66 4.63C5.295 89.68 2.637 91.65.15 93.709c-.086.086-.086.172-.086.257h.172Z" fill="url(#G)"/><path d="M199.764 106.142c-6.087 2.4-11.918 5.058-17.835 7.116-2.915 1.029-5.83 1.972-8.917 2.658-3.001.686-6.002.943-8.832.257a21.456 21.456 0 0 1-7.888-4.287c-2.401-1.972-4.545-4.458-6.86-6.687a41.012 41.012 0 0 0-16.806-9.774c-.086 0-.171 0-.257.085-.086.086 0 .172.086.258a38.363 38.363 0 0 1 15.52 10.717c2.143 2.315 4.115 4.887 6.602 7.202 2.487 2.4 5.402 4.286 8.66 5.401 3.43 1.029 7.031.943 10.375.514a37.474 37.474 0 0 0 9.604-2.829 55.978 55.978 0 0 0 8.66-4.63c2.744-1.714 5.402-3.686 7.888-5.744.086-.086.086-.171.086-.257.086 0 0-.086-.086 0Z" fill="url(#H)"/><path d="M25.359 103.568c2.658-1.457 5.573-2.486 8.403-2.572 3 .086 6.002.772 8.66 2.144 2.83 1.286 5.488 3.086 8.403 4.629 5.745 3.173 12.176 4.973 18.778 5.059.086 0 .172-.086.172-.257 0-.086-.086-.172-.172-.172-6.345-.6-12.519-2.829-17.835-6.344-2.658-1.715-5.23-3.687-8.231-5.23-3.001-1.715-6.346-2.658-9.775-2.915-3.602-.086-7.031.857-10.118 2.229-3.087 1.372-5.917 3.172-8.575 5.23-2.572 2.057-4.973 4.286-7.116 6.687-2.23 2.401-4.288 4.887-6.174 7.631-.086.085-.086.171 0 .257s.171.086.257 0c5.23-3.858 10.204-7.974 15.348-11.489a76.556 76.556 0 0 1 7.975-4.887Z" fill="url(#I)"/><path d="M174.641 96.452c-2.658 1.457-5.573 2.486-8.403 2.572-3.001-.086-6.002-.772-8.66-2.144-2.83-1.285-5.488-3.086-8.403-4.63-5.745-3.171-12.176-4.972-18.778-5.058-.086 0-.172.086-.172.172s.086.171.172.171c6.345.6 12.519 2.83 17.835 6.345 2.658 1.629 5.23 3.6 8.231 5.23 3.001 1.714 6.345 2.657 9.775 2.915 3.601.085 7.031-.858 10.118-2.23a38.309 38.309 0 0 0 8.575-5.23 66.521 66.521 0 0 0 7.202-6.687 75.175 75.175 0 0 0 6.174-7.63c.085-.086.085-.172 0-.257-.086-.086-.172-.086-.258 0-5.23 3.858-10.203 7.973-15.348 11.488-2.744 1.886-5.316 3.515-8.06 4.973Z" fill="url(#J)"/><path d="M28.79 122.774c2.229-2.144 4.715-3.859 7.459-4.63a21.236 21.236 0 0 1 9.003-.172c3.087.515 6.088 1.544 9.26 2.315 6.346 1.629 13.034 1.629 19.465 0 .085 0 .171-.085.171-.257 0-.086-.171-.171-.257-.171-6.345 1.028-12.776.514-18.864-1.544-3.001-.943-6.002-2.143-9.346-2.915-3.344-.857-6.86-.943-10.204-.343-3.515.858-6.602 2.658-9.174 4.716-2.573 2.143-4.888 4.544-6.86 7.287-1.972 2.658-3.687 5.487-5.23 8.317-1.544 2.915-2.83 5.916-3.945 8.916 0 .086 0 .172.086.258.086.085.172.085.257 0 4.116-5.059 7.717-10.375 11.833-15.09 1.972-2.315 4.116-4.544 6.345-6.687Z" fill="url(#K)"/><path d="M171.212 77.248c-2.23 2.143-4.716 3.858-7.46 4.63-2.915.685-6.002.77-8.917.17-3.087-.514-6.088-1.543-9.347-2.314-6.345-1.63-13.033-1.63-19.464 0-.085 0-.171.171-.085.257 0 .086.085.172.171.086 6.345-1.029 12.776-.515 18.864 1.543 3.001.943 6.002 2.143 9.346 2.915 3.344.857 6.86.943 10.204.343 3.515-.857 6.516-2.658 9.174-4.715 2.573-2.144 4.888-4.544 6.86-7.288 1.972-2.658 3.687-5.487 5.23-8.402 1.544-2.915 2.83-5.916 3.945-8.917 0-.085 0-.171-.086-.257s-.172-.086-.257 0c-4.116 5.059-7.717 10.374-11.833 15.09-2.058 2.486-4.116 4.8-6.345 6.859Z" fill="url(#L)"/><path d="M43.108 134.005c2.659-1.457 5.574-2.315 8.575-2.486 3.087-.258 6.345-.086 9.603-.172a39.874 39.874 0 0 0 18.778-4.972c.086-.086.086-.172.086-.258-.086-.085-.171-.171-.257-.085-5.83 2.657-12.176 3.858-18.607 3.429-3.172-.086-6.43-.514-9.775-.429-3.43 0-6.86.858-9.946 2.315-3.173 1.715-5.66 4.287-7.631 6.945-1.972 2.743-3.602 5.658-4.802 8.831a59.712 59.712 0 0 0-2.83 9.431 61.61 61.61 0 0 0-1.543 9.688c0 .085.086.171.086.171.085 0 .171 0 .257-.086 2.658-5.915 4.802-12.003 7.546-17.661 1.286-2.829 2.743-5.573 4.372-8.145 1.715-2.658 3.688-4.973 6.088-6.516Z" fill="url(#M)"/><path d="M156.806 66.103a21.643 21.643 0 0 1-8.575 2.572c-3.087.257-6.345.085-9.603.171a39.865 39.865 0 0 0-18.778 4.973c-.086.086-.172.171-.086.257s.171.172.257.086c5.831-2.658 12.176-3.773 18.607-3.43 3.172.086 6.345.515 9.775.43 3.429 0 6.859-.858 9.946-2.316 3.172-1.715 5.659-4.287 7.631-6.944 1.972-2.744 3.601-5.659 4.802-8.831 1.2-3.087 2.144-6.259 2.915-9.431a61.663 61.663 0 0 0 1.544-9.688c0-.086 0-.172-.086-.172s-.172 0-.257.086c-2.658 5.916-4.802 12.003-7.546 17.662-1.286 2.829-2.744 5.572-4.373 8.145-1.715 2.572-3.687 4.886-6.173 6.43Z" fill="url(#N)"/><path d="M61.544 142.836c2.915-1.114 6.088-1.714 9.26-2.657 6.345-1.801 12.09-5.145 16.806-9.689.086-.085.086-.171 0-.257-.085-.085-.171-.085-.257 0-4.973 4.116-10.804 6.859-17.063 8.145-3.087.686-6.345 1.115-9.518 2.144-3.344.943-6.43 2.572-9.003 4.801-2.658 2.486-4.373 5.573-5.573 8.745a38.64 38.64 0 0 0-2.316 9.774c-.343 3.258-.514 6.601-.343 9.859a63.019 63.019 0 0 0 1.03 9.774c0 .086.085.172.17.172.087 0 .172-.086.258-.172 1.03-6.43 1.544-12.774 2.744-19.033.514-3.087 1.2-6.087 2.144-9.002.857-2.915 2.143-5.659 4.115-7.802 2.058-2.229 4.63-3.773 7.546-4.802Z" fill="url(#O)"/><path d="M138.457 57.186c-2.916 1.029-6.088 1.715-9.261 2.658-6.345 1.8-12.09 5.144-16.806 9.688-.086.085-.086.171 0 .257s.172.086.257 0c4.974-4.03 10.804-6.859 17.064-8.145 3.087-.686 6.345-1.115 9.517-2.143 3.344-.944 6.431-2.572 9.004-4.802 2.658-2.486 4.373-5.572 5.573-8.745a38.664 38.664 0 0 0 2.315-9.773c.343-3.258.515-6.602.343-9.86a63.078 63.078 0 0 0-1.029-9.774c0-.086-.086-.172-.171-.172-.086 0-.172.086-.258.172-1.029 6.43-1.543 12.775-2.743 19.033-.515 3.087-1.201 6.088-2.144 9.003-.857 2.915-2.144 5.658-4.116 7.802-2.058 2.229-4.716 3.772-7.545 4.8Z" fill="url(#P)"/><path d="M67.717 157.84c1.543-2.572 3.687-4.801 6.174-6.516 2.572-1.8 5.402-3.172 8.231-4.972a38.936 38.936 0 0 0 13.72-13.718c.085-.086 0-.171-.086-.257s-.172 0-.258.086c-3.687 5.229-8.66 9.43-14.405 12.26-2.83 1.543-5.745 2.743-8.66 4.544-3.001 1.8-5.488 4.115-7.46 7.03-1.886 3.087-2.743 6.516-3.172 9.86a39.314 39.314 0 0 0 .257 10.031c.514 3.258 1.2 6.43 2.23 9.602.943 3.172 2.143 6.173 3.515 9.174 0 .086.086.086.171.086.086 0 .172-.086.172-.258-.686-6.515-1.8-12.774-2.23-19.033a83.474 83.474 0 0 1-.257-9.259c.172-3.087.686-6.088 2.058-8.66Z" fill="url(#Q)"/><path d="M132.197 42.181c-1.543 2.573-3.687 4.802-6.173 6.516-2.573 1.8-5.402 3.173-8.232 4.973a38.937 38.937 0 0 0-13.719 13.718c-.086.086 0 .171.086.257s.171 0 .257-.086c3.687-5.23 8.66-9.43 14.405-12.26 2.83-1.543 5.831-2.743 8.66-4.544 3.001-1.8 5.488-4.115 7.46-7.03 1.887-3.087 2.744-6.516 3.173-9.86a39.337 39.337 0 0 0-.257-10.031c-.515-3.258-1.201-6.43-2.23-9.602-.943-3.173-2.143-6.173-3.515-9.174 0-.086-.086-.086-.172-.086s-.171.086-.171.257c.686 6.516 1.8 12.775 2.229 19.034.257 3.086.343 6.173.257 9.26-.085 3.171-.686 6.172-2.058 8.658Z" fill="url(#R)"/><path d="M84.094 173.015c-.686-3-.943-6.001-.257-8.831a21.458 21.458 0 0 1 4.287-7.887c1.972-2.401 4.459-4.544 6.688-6.859a41.005 41.005 0 0 0 9.775-16.804c0-.086 0-.172-.085-.258-.086 0-.172 0-.258.086-2.229 6.002-5.916 11.317-10.718 15.604-2.315 2.144-4.887 4.115-7.202 6.602-2.401 2.486-4.288 5.401-5.402 8.659-1.03 3.43-.944 7.03-.515 10.374a37.492 37.492 0 0 0 2.83 9.603c1.286 3 2.83 5.915 4.63 8.659 1.715 2.743 3.687 5.401 5.745 7.888.086.085.171.085.257.085s.172-.171.086-.257c-2.4-6.087-5.059-11.917-7.117-17.833-1.115-2.829-2.058-5.744-2.744-8.831Z" fill="url(#S)"/><path d="M115.906 27.007c.686 3 .943 6.001.257 8.83a21.468 21.468 0 0 1-4.287 7.888c-1.973 2.4-4.459 4.544-6.689 6.86a41.008 41.008 0 0 0-9.774 16.803c0 .086 0 .172.085.258.086 0 .172 0 .258-.086 2.229-6.002 5.916-11.317 10.718-15.604 2.315-2.144 4.887-4.115 7.202-6.602 2.401-2.486 4.287-5.401 5.402-8.66 1.029-3.428.943-7.03.515-10.373a37.502 37.502 0 0 0-2.83-9.603c-1.286-3-2.83-5.915-4.63-8.659-1.715-2.743-3.687-5.401-5.745-7.888-.086-.171-.172-.171-.257-.171-.086.086-.086.171-.086.257 2.401 6.087 5.059 11.918 7.117 17.833 1.114 2.915 1.972 5.916 2.744 8.917Z" fill="url(#T)"/><path d="M108.446 182.531c-1.8-2.572-3.429-5.144-4.887-7.888-1.458-2.658-2.487-5.573-2.572-8.402.085-3.001.771-6.001 2.143-8.659 1.286-2.83 3.087-5.487 4.631-8.402 3.172-5.745 4.973-12.175 5.058-18.777 0-.085-.085-.171-.171-.171-.086 0-.172.086-.172.171-.6 6.345-2.829 12.518-6.345 17.833-1.715 2.744-3.687 5.316-5.23 8.231-1.715 3.001-2.744 6.345-2.915 9.774-.086 3.601.857 7.03 2.229 10.117 1.372 3.086 3.173 5.916 5.23 8.573a66.432 66.432 0 0 0 6.689 7.202c2.4 2.229 4.887 4.287 7.631 6.088.086.085.171.085.257 0 .086-.086.086-.172 0-.258-3.944-5.315-8.06-10.202-11.576-15.432Z" fill="url(#U)"/><path d="M91.554 17.49c1.8 2.571 3.43 5.143 4.887 7.887 1.458 2.658 2.487 5.573 2.572 8.402-.085 3-.771 6.001-2.143 8.66-1.286 2.828-3.087 5.486-4.63 8.401-3.173 5.745-4.974 12.175-5.06 18.776 0 .086.086.172.172.172a.185.185 0 0 0 .172-.171c.6-6.345 2.83-12.518 6.345-17.834 1.715-2.657 3.687-5.23 5.23-8.23 1.715-3 2.658-6.345 2.916-9.774.085-3.601-.858-7.03-2.23-10.117-1.372-3.086-3.172-5.916-5.23-8.573a66.516 66.516 0 0 0-6.688-7.202c-2.401-2.23-4.888-4.287-7.632-6.173-.085-.086-.171-.086-.257 0-.086.085-.086.171 0 .257 3.944 5.401 7.974 10.374 11.576 15.518Z" fill="url(#V)"/><defs><linearGradient id="a" x1="88.911" y1="165.658" x2="108.605" y2="165.658" gradientUnits="userSpaceOnUse"><stop stop-color="#FAA21B"/><stop offset="1" stop-color="#EC5823"/></linearGradient><linearGradient id="b" x1="67.332" y1="38.441" x2="93.483" y2="38.441" gradientUnits="userSpaceOnUse"><stop stop-color="#FAA21B"/><stop offset="1" stop-color="#EC5823"/></linearGradient><linearGradient id="c" x1="106.549" y1="161.319" x2="132.61" y2="161.319" gradientUnits="userSpaceOnUse"><stop stop-color="#FAA21B"/><stop offset="1" stop-color="#EC5823"/></linearGradient><linearGradient id="d" x1="44.044" y1="46.746" x2="77.822" y2="46.746" gradientUnits="userSpaceOnUse"><stop stop-color="#FAA21B"/><stop offset="1" stop-color="#EC5823"/></linearGradient><linearGradient id="e" x1="122.271" y1="153.066" x2="156.135" y2="153.066" gradientUnits="userSpaceOnUse"><stop stop-color="#FAA21B"/><stop offset="1" stop-color="#EC5823"/></linearGradient><linearGradient id="f" x1="24.369" y1="58.839" x2="71.461" y2="58.839" gradientUnits="userSpaceOnUse"><stop stop-color="#FAA21B"/><stop offset="1" stop-color="#EC5823"/></linearGradient><linearGradient id="g" x1="128.463" y1="140.974" x2="175.555" y2="140.974" gradientUnits="userSpaceOnUse"><stop stop-color="#FAA21B"/><stop offset="1" stop-color="#EC5823"/></linearGradient><linearGradient id="h" x1="10.132" y1="72.176" x2="68.518" y2="72.176" gradientUnits="userSpaceOnUse"><stop stop-color="#FAA21B"/><stop offset="1" stop-color="#EC5823"/></linearGradient><linearGradient id="i" x1="131.495" y1="127.682" x2="189.881" y2="127.682" gradientUnits="userSpaceOnUse"><stop stop-color="#FAA21B"/><stop offset="1" stop-color="#EC5823"/></linearGradient><linearGradient id="j" x1="1.661" y1="85.584" x2="67.198" y2="85.584" gradientUnits="userSpaceOnUse"><stop stop-color="#FAA21B"/><stop offset="1" stop-color="#EC5823"/></linearGradient><linearGradient id="k" x1="132.73" y1="114.401" x2="198.204" y2="114.401" gradientUnits="userSpaceOnUse"><stop stop-color="#FAA21B"/><stop offset="1" stop-color="#EC5823"/></linearGradient><linearGradient id="l" x1=".056" y1="98.813" x2="68.361" y2="98.813" gradientUnits="userSpaceOnUse"><stop stop-color="#FAA21B"/><stop offset="1" stop-color="#EC5823"/></linearGradient><linearGradient id="m" x1="131.653" y1="101.128" x2="199.958" y2="101.128" gradientUnits="userSpaceOnUse"><stop stop-color="#FAA21B"/><stop offset="1" stop-color="#EC5823"/></linearGradient><linearGradient id="n" x1="5.436" y1="119.592" x2="71.793" y2="119.592" gradientUnits="userSpaceOnUse"><stop stop-color="#FAA21B"/><stop offset="1" stop-color="#EC5823"/></linearGradient><linearGradient id="o" x1="128.221" y1="80.32" x2="194.664" y2="80.32" gradientUnits="userSpaceOnUse"><stop stop-color="#FAA21B"/><stop offset="1" stop-color="#EC5823"/></linearGradient><linearGradient id="p" x1="16.748" y1="139.134" x2="76.891" y2="139.134" gradientUnits="userSpaceOnUse"><stop stop-color="#FAA21B"/><stop offset="1" stop-color="#EC5823"/></linearGradient><linearGradient id="q" x1="123.122" y1="60.744" x2="183.264" y2="60.744" gradientUnits="userSpaceOnUse"><stop stop-color="#FAA21B"/><stop offset="1" stop-color="#EC5823"/></linearGradient><linearGradient id="r" x1="34.06" y1="151.91" x2="83.807" y2="151.91" gradientUnits="userSpaceOnUse"><stop stop-color="#FAA21B"/><stop offset="1" stop-color="#EC5823"/></linearGradient><linearGradient id="s" x1="116.204" y1="47.998" x2="165.95" y2="47.998" gradientUnits="userSpaceOnUse"><stop stop-color="#FAA21B"/><stop offset="1" stop-color="#EC5823"/></linearGradient><linearGradient id="t" x1="52.645" y1="160.599" x2="91.68" y2="160.599" gradientUnits="userSpaceOnUse"><stop stop-color="#FAA21B"/><stop offset="1" stop-color="#EC5823"/></linearGradient><linearGradient id="u" x1="108.242" y1="39.22" x2="147.277" y2="39.22" gradientUnits="userSpaceOnUse"><stop stop-color="#FAA21B"/><stop offset="1" stop-color="#EC5823"/></linearGradient><linearGradient id="v" x1="70.903" y1="165.486" x2="100.197" y2="165.486" gradientUnits="userSpaceOnUse"><stop stop-color="#FAA21B"/><stop offset="1" stop-color="#EC5823"/></linearGradient><linearGradient id="w" x1="99.689" y1="34.345" x2="129.017" y2="34.345" gradientUnits="userSpaceOnUse"><stop stop-color="#FAA21B"/><stop offset="1" stop-color="#EC5823"/></linearGradient><linearGradient id="x" x1="91.228" y1="34.075" x2="110.921" y2="34.075" gradientUnits="userSpaceOnUse"><stop stop-color="#FAA21B"/><stop offset="1" stop-color="#EC5823"/></linearGradient><linearGradient id="y" x1="55.502" y1="42.133" x2="85.406" y2="42.133" gradientUnits="userSpaceOnUse"><stop stop-color="#FAA21B"/><stop offset="1" stop-color="#EC5823"/></linearGradient><linearGradient id="z" x1="114.685" y1="157.663" x2="144.676" y2="157.663" gradientUnits="userSpaceOnUse"><stop stop-color="#FAA21B"/><stop offset="1" stop-color="#EC5823"/></linearGradient><linearGradient id="A" x1="33.624" y1="52.414" x2="73.987" y2="52.414" gradientUnits="userSpaceOnUse"><stop stop-color="#FAA21B"/><stop offset="1" stop-color="#EC5823"/></linearGradient><linearGradient id="B" x1="126.021" y1="147.477" x2="166.384" y2="147.477" gradientUnits="userSpaceOnUse"><stop stop-color="#FAA21B"/><stop offset="1" stop-color="#EC5823"/></linearGradient><linearGradient id="C" x1="16.4" y1="65.408" x2="69.721" y2="65.408" gradientUnits="userSpaceOnUse"><stop stop-color="#FAA21B"/><stop offset="1" stop-color="#EC5823"/></linearGradient><linearGradient id="D" x1="130.205" y1="134.514" x2="183.411" y2="134.514" gradientUnits="userSpaceOnUse"><stop stop-color="#FAA21B"/><stop offset="1" stop-color="#EC5823"/></linearGradient><linearGradient id="E" x1="4.918" y1="78.763" x2="67.543" y2="78.763" gradientUnits="userSpaceOnUse"><stop stop-color="#FAA21B"/><stop offset="1" stop-color="#EC5823"/></linearGradient><linearGradient id="F" x1="132.385" y1="121.115" x2="195.01" y2="121.115" gradientUnits="userSpaceOnUse"><stop stop-color="#FAA21B"/><stop offset="1" stop-color="#EC5823"/></linearGradient><linearGradient id="G" x1=".12" y1="92.307" x2="67.59" y2="92.307" gradientUnits="userSpaceOnUse"><stop stop-color="#FAA21B"/><stop offset="1" stop-color="#EC5823"/></linearGradient><linearGradient id="H" x1="132.389" y1="107.613" x2="199.845" y2="107.613" gradientUnits="userSpaceOnUse"><stop stop-color="#FAA21B"/><stop offset="1" stop-color="#EC5823"/></linearGradient><linearGradient id="I" x1="1.77" y1="108.91" x2="69.733" y2="108.91" gradientUnits="userSpaceOnUse"><stop stop-color="#FAA21B"/><stop offset="1" stop-color="#EC5823"/></linearGradient><linearGradient id="J" x1="130.281" y1="90.932" x2="198.33" y2="90.932" gradientUnits="userSpaceOnUse"><stop stop-color="#FAA21B"/><stop offset="1" stop-color="#EC5823"/></linearGradient><linearGradient id="K" x1="10.321" y1="129.58" x2="74.109" y2="129.58" gradientUnits="userSpaceOnUse"><stop stop-color="#FAA21B"/><stop offset="1" stop-color="#EC5823"/></linearGradient><linearGradient id="L" x1="125.955" y1="70.187" x2="189.694" y2="70.187" gradientUnits="userSpaceOnUse"><stop stop-color="#FAA21B"/><stop offset="1" stop-color="#EC5823"/></linearGradient><linearGradient id="M" x1="24.804" y1="146.12" x2="80.116" y2="146.12" gradientUnits="userSpaceOnUse"><stop stop-color="#FAA21B"/><stop offset="1" stop-color="#EC5823"/></linearGradient><linearGradient id="N" x1="119.774" y1="53.904" x2="175.207" y2="53.904" gradientUnits="userSpaceOnUse"><stop stop-color="#FAA21B"/><stop offset="1" stop-color="#EC5823"/></linearGradient><linearGradient id="O" x1="43.506" y1="156.795" x2="87.648" y2="156.795" gradientUnits="userSpaceOnUse"><stop stop-color="#FAA21B"/><stop offset="1" stop-color="#EC5823"/></linearGradient><linearGradient id="P" x1="112.362" y1="43.002" x2="156.503" y2="43.002" gradientUnits="userSpaceOnUse"><stop stop-color="#FAA21B"/><stop offset="1" stop-color="#EC5823"/></linearGradient><linearGradient id="Q" x1="61.623" y1="163.564" x2="95.856" y2="163.564" gradientUnits="userSpaceOnUse"><stop stop-color="#FAA21B"/><stop offset="1" stop-color="#EC5823"/></linearGradient><linearGradient id="R" x1="104.066" y1="36.194" x2="138.299" y2="36.194" gradientUnits="userSpaceOnUse"><stop stop-color="#FAA21B"/><stop offset="1" stop-color="#EC5823"/></linearGradient><linearGradient id="S" x1="80.126" y1="166.014" x2="104.572" y2="166.014" gradientUnits="userSpaceOnUse"><stop stop-color="#FAA21B"/><stop offset="1" stop-color="#EC5823"/></linearGradient><linearGradient id="T" x1="95.433" y1="33.681" x2="119.879" y2="33.681" gradientUnits="userSpaceOnUse"><stop stop-color="#FAA21B"/><stop offset="1" stop-color="#EC5823"/></linearGradient><linearGradient id="U" x1="97.998" y1="164.115" x2="120.073" y2="164.115" gradientUnits="userSpaceOnUse"><stop stop-color="#FAA21B"/><stop offset="1" stop-color="#EC5823"/></linearGradient><linearGradient id="V" x1="79.932" y1="35.575" x2="102.007" y2="35.575" gradientUnits="userSpaceOnUse"><stop stop-color="#FAA21B"/><stop offset="1" stop-color="#EC5823"/></linearGradient></defs></svg>
